<svg id="visual" viewBox="0 0 960 240" width="960" height="240" xmlns="http://www.w3.org/2000/svg" xmlns:xlink="http://www.w3.org/1999/xlink" version="1.1"><rect x="0" y="0" width="960" height="240" fill="#ffffff"></rect><path d="M0 182L26.7 182C53.3 182 106.7 182 160 184.8C213.3 187.7 266.7 193.3 320 194.3C373.3 195.3 426.7 191.7 480 185.8C533.3 180 586.7 172 640 166C693.3 160 746.7 156 800 163C853.3 170 906.7 188 933.3 197L960 206L960 241L933.3 241C906.7 241 853.3 241 800 241C746.7 241 693.3 241 640 241C586.7 241 533.3 241 480 241C426.7 241 373.3 241 320 241C266.7 241 213.3 241 160 241C106.7 241 53.3 241 26.7 241L0 241Z" fill="#1980bb" stroke-linecap="round" stroke-linejoin="miter"></path></svg>